<svg width="13" height="17" viewBox="0 0 13 17" fill="none" xmlns="http://www.w3.org/2000/svg">
<path d="M0.833984 2.83464V14.168C0.833984 14.5437 0.98324 14.904 1.24892 15.1697C1.51459 15.4354 1.87493 15.5846 2.25065 15.5846H10.7506C11.1264 15.5846 11.4867 15.4354 11.7524 15.1697C12.0181 14.904 12.1673 14.5437 12.1673 14.168V5.91022C12.1673 5.72149 12.1296 5.53467 12.0563 5.36073C11.9831 5.18678 11.8759 5.02922 11.7409 4.8973L8.5959 1.82172C8.33124 1.56293 7.97581 1.41801 7.60565 1.41797H2.25065C1.87493 1.41797 1.51459 1.56722 1.24892 1.8329C0.98324 2.09858 0.833984 2.45891 0.833984 2.83464V2.83464Z" stroke="#333333" stroke-linecap="round" stroke-linejoin="round"/>
<path d="M4.375 9.21094H8.625" stroke="#333333" stroke-linecap="round" stroke-linejoin="round"/>
<path d="M4.375 12.043H6.5" stroke="#333333" stroke-linecap="round" stroke-linejoin="round"/>
<path d="M7.91797 1.41797V4.2513C7.91797 4.62703 8.06722 4.98736 8.3329 5.25304C8.59858 5.51871 8.95891 5.66797 9.33464 5.66797H12.168" stroke="#333333" stroke-linejoin="round"/>
</svg>
