<?xml version="1.0" encoding="utf-8"?>
<!-- Generator: Adobe Illustrator 20.1.0, SVG Export Plug-In . SVG Version: 6.00 Build 0)  -->
<svg version="1.1" id="Capa_1" xmlns="http://www.w3.org/2000/svg" xmlns:xlink="http://www.w3.org/1999/xlink" x="0px" y="0px"
	 viewBox="0 0 313.8 416" style="enable-background:new 0 0 313.8 416;" xml:space="preserve">
<style type="text/css">
	.st0{fill:#9B9B9B;}
</style>
<g>
	<g>
		<path class="st0" d="M298.7,141.9h-29.6V80.5c0-44.4-36.1-80.5-80.5-80.5h-63.4C80.8,0,44.7,36.1,44.7,80.5v61.3H15.1
			C6.8,141.9,0,148.6,0,157v147.4C0,366,50.1,416,111.6,416h90.7c61.6,0,111.6-50.1,111.6-111.6V157
			C313.8,148.6,307.1,141.9,298.7,141.9z M83.4,81.1c0-24.9,20.2-45.1,45.1-45.1h56.8c24.9,0,45.1,20.2,45.1,45.1v55h-147V81.1z
			 M275.4,302.8c0,42-34.1,76.1-76.1,76.1h-84.8c-42,0-76.1-34.1-76.1-76.1V179h237V302.8z"/>
	</g>
</g>
<path class="st0" d="M188.7,267.9c0-17.5-14.2-31.8-31.8-31.8s-31.8,14.2-31.8,31.8c0,12.9,7.7,24,18.8,29L125.2,339h63.5
	l-18.8-42.1C180.9,291.9,188.7,280.8,188.7,267.9z"/>
</svg>
