<?xml version="1.0" encoding="utf-8"?>
<!-- Generator: Adobe Illustrator 16.0.0, SVG Export Plug-In . SVG Version: 6.00 Build 0)  -->
<!DOCTYPE svg PUBLIC "-//W3C//DTD SVG 1.1//EN" "http://www.w3.org/Graphics/SVG/1.1/DTD/svg11.dtd">
<svg version="1.1" id="Layer_1" xmlns="http://www.w3.org/2000/svg" xmlns:xlink="http://www.w3.org/1999/xlink" x="0px" y="0px"
	 width="19.54px" height="19.48px" viewBox="0 0 19.54 19.48" enable-background="new 0 0 19.54 19.48" xml:space="preserve">
<path fill="#626262" d="M11.618,0C7.242,0,3.695,3.547,3.695,7.922c0,4.375,3.547,7.921,7.923,7.921
	c4.375,0,7.922-3.547,7.922-7.921C19.54,3.547,15.993,0,11.618,0z M11.618,13.609c-3.141,0-5.688-2.547-5.688-5.687
	c0-3.141,2.547-5.687,5.688-5.687s5.687,2.546,5.687,5.687C17.305,11.063,14.759,13.609,11.618,13.609z"/>
<polygon fill="#626262" points="0,17.403 2.078,19.48 8.551,14.026 5.515,12.208 "/>
</svg>
