<?xml version="1.0" encoding="utf-8"?>
<!-- Generator: Adobe Illustrator 20.1.0, SVG Export Plug-In . SVG Version: 6.00 Build 0)  -->
<svg version="1.1" id="Capa_1" xmlns="http://www.w3.org/2000/svg" xmlns:xlink="http://www.w3.org/1999/xlink" x="0px" y="0px"
	 viewBox="0 0 112.2 112.2" style="enable-background:new 0 0 112.2 112.2;" xml:space="preserve">
<style type="text/css">
	.st0{fill:#545454;}
</style>
<path class="st0" d="M56.1,0C25.1,0,0,25.1,0,56.1c0,31,25.1,56.1,56.1,56.1c31,0,56.1-25.1,56.1-56.1C112.2,25.1,87.1,0,56.1,0z
	 M83.7,67.8c5.9,5.5,7.1,8.2,7.3,8.5c2.4,4.1-2.7,4.4-2.7,4.4l-9.8,0.1c0,0-2.1,0.4-4.9-1.5c-3.7-2.5-7.2-9.1-9.9-8.2
	C60.9,72,61,77.9,61,77.9s0,1.2-0.6,1.9c-0.7,0.8-2,0.9-2,0.9H54c0,0-9.7,0.6-18.2-8.4c-9.4-9.7-17.6-29-17.6-29s-0.5-1.3,0-1.9
	c0.6-0.7,2.2-0.7,2.2-0.7l10.5-0.1c0,0,1,0.2,1.7,0.7c0.6,0.4,0.9,1.2,0.9,1.2s1.7,4.3,4,8.2c4.4,7.6,6.4,9.2,7.9,8.4
	c2.2-1.1,1.5-10.7,1.5-10.7s0-3.5-1.1-5c-0.9-1.2-2.6-1.5-3.3-1.6c-0.6-0.1,0.3-1.5,1.6-2.1c1.9-0.9,5.2-0.9,9.2-0.9
	c3.1,0,4,0.2,5.2,0.5c3.6,0.9,2.4,4.3,2.4,12.4c0,2.6-0.5,6.3,1.4,7.5c0.8,0.5,2.8,0.1,7.7-8.3c2.4-3.9,4.2-8.6,4.2-8.6
	s0.4-0.8,1-1.2c0.6-0.4,1.4-0.3,1.4-0.3l11.1-0.1c0,0,3.4-0.4,3.9,1.1c0.5,1.6-1.3,5.3-5.8,11.3C78.4,63,77.5,62.1,83.7,67.8z"/>
</svg>
